<svg xmlns="http://www.w3.org/2000/svg" xmlns:xlink="http://www.w3.org/1999/xlink">
    <style>.sprite-symbol-usage {display: none;} .sprite-symbol-usage:target {display: inline;}</style>
    <symbol fill="none" viewBox="0 0 16 16" id="close"><path d="M9.164 8.011l6.576-6.54a.792.792 0 000-1.128.81.81 0 00-1.14 0L8.03 6.877 1.4.245a.805.805 0 00-1.14 0 .81.81 0 000 1.143l6.626 6.627-6.65 6.613a.793.793 0 000 1.129.81.81 0 001.14 0L8.02 9.149l6.604 6.606a.805.805 0 001.14 0 .81.81 0 000-1.143l-6.6-6.6z" fill="#fff" /></symbol>

    <use id="close-usage" xlink:href="#close" class="sprite-symbol-usage" />
</svg>
